PathFileType	4	(X/Y/Z)	jog.trc
DataRate	CameraRate	NumFrames	NumMarkers	Units	OrigDataRate	OrigDataStartFrame	OrigNumFrames
250.000000	250.000000	4	51	mm	250.000000	418	837
Frame#	Time	C7			RSH			LSH			MAN			T7			LARM			LELB			LFOREARM			LWR			RARM			RELB			RFOREARM			RWR			RASI			LASI			SACR			P1			P2			P3			LTHLP			LTHLD			LTHAP			LTHAD			LLEPI			LPAT			LTIAP			LTIAD			LTILAT			LLMAL			LHEEL			LMFS			LMFL			LP1MT			LTOE			LP5MT			RTHLP			RTHLD			RTHAP			RTHAD			RLEPI			RPAT			RTIAP			RTIAD			RTILAT			RLMAL			RHEEL			RMFS			RMFL			RP1MT			RTOE			RP5MT			
		X1	Y1	Z1	X2	Y2	Z2	X3	Y3	Z3	X4	Y4	Z4	X5	Y5	Z5	X6	Y6	Z6	X7	Y7	Z7	X8	Y8	Z8	X9	Y9	Z9	X10	Y10	Z10	X11	Y11	Z11	X12	Y12	Z12	X13	Y13	Z13	X14	Y14	Z14	X15	Y15	Z15	X16	Y16	Z16	X17	Y17	Z17	X18	Y18	Z18	X19	Y19	Z19	X20	Y20	Z20	X21	Y21	Z21	X22	Y22	Z22	X23	Y23	Z23	X24	Y24	Z24	X25	Y25	Z25	X26	Y26	Z26	X27	Y27	Z27	X28	Y28	Z28	X29	Y29	Z29	X30	Y30	Z30	X31	Y31	Z31	X32	Y32	Z32	X33	Y33	Z33	X34	Y34	Z34	X35	Y35	Z35	X36	Y36	Z36	X37	Y37	Z37	X38	Y38	Z38	X39	Y39	Z39	X40	Y40	Z40	X41	Y41	Z41	X42	Y42	Z42	X43	Y43	Z43	X44	Y44	Z44	X45	Y45	Z45	X46	Y46	Z46	X47	Y47	Z47	X48	Y48	Z48	X49	Y49	Z49	X50	Y50	Z50	X51	Y51	Z51	

419	1.672	488.6133422851565	1525.086669921875	233.9566040039064	509.9804992675784	1509.236694335938	403.9627685546877	512.2280273437502	1510.565063476563	75.8279724121094	622.283874511719	1423.77197265625	250.9802398681642	413.4694519042971	1339.839477539063	232.5660552978517	460.790710449219	1331.028686523438	-22.28039741516114	423.8232421875002	1201.719604492188	-57.62972259521487	546.693054199219	1139.999267578125	-10.39102458953858	654.466247558594	1084.308471679688	31.82185173034669	400.5440979003909	1384.872192382813	500.0189514160159	303.3272705078126	1296.677124023438	547.8543090820315	376.1406860351564	1171.769897460938	553.7692871093752	433.4986877441409	1051.550537109375	548.5664062500002	593.1177368164065	1062.3994140625	336.7732238769532	588.151306152344	1039.965209960938	124.0579681396485	407.2817382812502	1090.338500976563	240.7751464843751	399.4746398925784	1059.994873046875	188.5291442871094	392.1116943359377	1062.103393554688	297.0267639160157	372.3338623046876	1003.491821289063	241.7653656005861	485.3677673339846	730.3567504882815	70.53460693359378	486.1938781738284	617.3994140625002	89.93750762939456	613.5382080078127	722.9199829101565	156.2053527832032	596.890808105469	607.0071411132815	166.7555847167969	474.4451904296877	512.3006591796877	118.5539169311524	546.613220214844	458.3092956542971	184.2140197753907	316.9321899414064	452.0596618652346	191.3135986328126	177.3016204833985	449.7707214355471	189.1779937744141	246.9282226562501	491.5616760253909	115.9662857055665	32.02925872802736	474.0119934082034	134.4303436279297	10.75327587127686	537.5562133789065	189.805648803711	8.638393402099613	366.7173461914064	179.3523712158204	-18.37071418762208	407.3431701660159	122.4404220581055	-50.66082000732425	317.2771911621095	214.4207611083986	-46.58593368530275	284.7269897460939	168.7643737792969	-71.07422637939456	356.0034179687501	96.41314697265631	576.459899902344	792.8261718750005	435.4280700683596	631.674499511719	694.1662597656252	420.857116699219	704.207946777344	816.8076782226567	362.5159301757814	737.125671386719	724.202087402344	354.8590393066407	678.3494262695315	551.4069824218752	393.9651794433596	765.7183227539065	580.016052246094	345.1433410644532	710.6992797851565	338.3589782714845	300.4981994628907	694.420837402344	215.2781829833986	280.6542968750001	666.006774902344	323.8434143066407	382.2818603515626	664.4548339843752	89.13570404052737	328.2643127441407	594.8887939453127	55.86742019653323	282.0021972656251	769.6336059570317	89.58973693847659	277.6865539550782	730.3367309570315	54.45076370239261	331.6914062500001	826.9712524414067	42.27475357055665	227.1724243164064	860.5507202148442	51.58269119262698	262.2084045410157	799.1201171875005	25.83580398559572	351.1260070800782	
420	1.676	502.813415527344	1520.955200195313	234.7695922851564	524.9887695312502	1504.631958007813	404.7065429687502	526.1873779296877	1506.394653320313	76.24170684814456	636.6859130859377	1419.052734375	251.0601806640626	427.020690917969	1335.83642578125	233.4361419677736	473.6328735351565	1326.61962890625	-21.74392318725587	435.4310607910159	1198.022827148438	-57.2680587768555	556.9375610351565	1132.230590820313	-11.59066104888916	663.1411743164065	1072.5888671875	29.01339912414552	417.3752136230471	1378.526245117188	502.0198669433596	321.5218200683595	1289.518188476563	550.6320800781252	396.0523071289065	1165.575805664063	555.5321044921877	454.9829406738284	1046.270263671875	549.7509765625002	606.9486083984377	1058.421630859375	338.0100402832032	600.3100585937502	1036.289672851563	122.5515594482422	420.4127502441409	1085.766723632813	240.9167022705079	412.4007568359377	1055.290771484375	188.5844268798829	405.0664978027346	1057.638549804688	296.8959350585939	385.324401855469	998.5380249023442	241.3250579833986	502.7538146972659	725.025085449219	70.2961120605469	505.6641845703127	612.0689697265627	89.9123229980469	630.4844970703127	719.5820922851565	156.6163940429688	616.2656250000002	603.748962402344	166.3965911865235	496.2074890136721	507.6662902832034	118.0944595336915	567.8796386718752	453.7351074218752	184.7316589355469	338.7832946777345	450.1271667480471	191.0083923339844	199.1738739013673	450.3647155761721	188.9834289550782	269.4008789062501	490.3361511230471	115.4198760986329	54.35074996948245	476.7847900390627	133.6329498291016	33.292781829834	540.7869262695315	188.6927795410157	29.88435745239259	369.9324035644532	178.9402313232422	3.325622558593752	410.3599243164065	122.1130447387696	-30.15093421936037	320.9343261718751	213.5987091064454	-25.97836685180665	288.3054504394532	168.4525299072266	-49.36817169189456	359.417205810547	95.46909332275393	589.7021484375002	788.4196166992192	436.3253479003909	645.030212402344	689.8128662109377	421.0508728027346	717.833190917969	812.3998413085942	364.6671752929689	749.9807739257815	719.2543945312502	356.2501220703126	693.7851562500002	547.4191894531252	393.5991821289065	781.176147460938	575.0452880859377	343.8277587890626	718.131042480469	334.8771362304689	297.3428039550782	696.6912231445315	212.8385009765626	276.769989013672	676.5486450195315	320.9107055664064	379.6051635742189	661.4719238281252	88.25555419921878	325.6178283691407	593.9812622070315	54.62448501586917	279.3012695312501	767.281433105469	89.50093841552737	274.4820251464845	728.930114746094	54.9223327636719	329.2271728515626	826.6666870117192	41.62406539916994	226.1422882080079	859.7619628906255	51.13046646118167	260.6312866210939	798.4861450195317	26.49266815185548	350.6845703125001	
421	1.68	516.8977661132815	1516.857299804688	235.5495452880861	539.9829101562502	1500.029541015625	405.4219360351565	539.9825439453127	1502.210327148438	76.84819793701175	651.1582641601565	1414.2919921875	250.9624328613282	440.6104125976565	1331.820068359375	233.935760498047	486.4216613769534	1322.241455078125	-21.01249694824219	446.8967895507815	1194.266479492188	-56.66163253784183	566.9785156250002	1124.46533203125	-12.84112930297852	671.409851074219	1060.759887695313	26.14028739929201	434.3883361816409	1372.088989257813	504.1600341796877	339.8811645507814	1282.129516601563	553.3709106445315	416.1036376953127	1159.298217773438	557.1895751953127	476.612243652344	1041.007080078125	550.861999511719	619.8298950195315	1053.812377929688	337.3787841796876	613.747497558594	1032.3876953125	123.2981262207032	433.2334289550784	1080.81982421875	240.7864379882814	425.1831359863284	1050.31591796875	188.6825866699219	417.877624511719	1053.009155273438	297.1011657714845	398.1040344238284	994.1875610351567	241.7236938476564	520.0923461914065	719.6434326171877	70.07156372070315	525.1052246093752	606.8072509765627	89.78323364257815	647.6923828125002	716.633239746094	156.3577880859376	635.8237915039065	600.5485839843752	165.9933776855469	518.1201782226565	503.2496032714846	117.4827346801758	590.333435058594	449.8726196289065	184.0708618164063	360.8855590820314	448.5464172363284	191.1270446777344	221.245819091797	450.7311096191409	188.4344329833985	292.1910095214845	489.2169494628909	114.5784301757813	76.87409973144534	479.2625427246096	132.8863372802735	56.05726242065433	543.6809692382815	187.6930541992188	51.41263198852542	372.872039794922	178.7840270996094	25.66042518615724	413.2005310058596	121.3803176879883	-9.035405158996586	324.4231262207032	213.1753692626954	-4.791505336761476	291.4305419921876	168.1991882324219	-27.30760192871095	362.4568786621095	94.75956726074222	602.5233154296877	783.5808715820317	436.6893005371096	657.8371582031252	684.9072265625002	420.8132324218752	731.2251586914065	807.4674682617192	367.1144104003907	761.4085083007815	713.8730468750002	356.894256591797	709.3147583007815	543.4885864257815	392.889587402344	796.2423706054692	569.9443359375002	342.1384887695314	725.297546386719	332.0639038085939	293.4587707519532	698.8887329101565	210.703338623047	273.0127563476564	686.6016235351565	318.165008544922	376.1267395019532	660.5584716796877	88.53428649902347	323.3341369628907	594.1151123046877	54.88687515258792	277.2059020996095	766.824890136719	88.92733001708987	272.2899780273439	728.6739501953127	55.34955596923831	327.8185424804689	827.1797485351567	41.10094451904298	225.7009124755861	861.327514648438	49.39485168457034	260.3008728027345	798.743530273438	26.66534423828126	350.4511718750001	
422	1.684	531.0242919921877	1512.9111328125	236.5244445800782	555.0989990234377	1495.5400390625	406.456970214844	553.9969482421877	1498.006713867188	76.95508575439456	665.614440917969	1409.533447265625	250.8479919433595	454.3883361816409	1327.79833984375	234.1597747802736	499.3381958007815	1317.77685546875	-20.44513893127442	458.2516784667971	1190.48681640625	-56.05202484130862	576.8594360351565	1116.83203125	-14.09919738769532	679.3875122070315	1049.10400390625	23.16670608520509	451.4410705566409	1365.55029296875	506.264343261719	358.3713989257814	1274.713500976563	556.1165771484377	436.318054199219	1153.003295898438	558.9306640625002	498.482849121094	1035.795043945313	552.050231933594	632.730895996094	1049.720703125	337.4547119140626	626.894958496094	1028.413208007813	123.5326614379883	445.8510437011721	1076.3154296875	241.0646514892579	437.9526672363284	1044.92236328125	188.6689147949219	430.5081481933596	1048.420288085938	297.0797424316407	410.7602539062502	989.4481811523442	242.1793212890626	537.4621582031252	714.3925781250002	69.80863189697268	544.6365966796877	601.7307128906252	89.61125183105472	664.9729003906252	713.6880493164065	155.9344024658204	655.312194824219	597.517028808594	165.5028381347657	540.0744628906252	499.0989990234377	117.049415588379	612.5781860351565	446.3110656738284	183.6486511230469	383.129364013672	446.6141662597659	190.759262084961	243.5068664550782	451.0213623046877	188.2128906250001	315.064666748047	488.0056457519534	114.038803100586	99.69776153564459	481.3510742187502	132.1680297851563	78.98381042480472	546.2539062500002	186.5118713378907	73.3264083862305	375.4261169433595	178.3641510009766	48.35468292236331	415.7585144042971	120.4735107421876	12.50834560394288	327.6812438964845	213.0350036621095	16.75127029418946	294.2737731933595	168.2282867431641	-4.799069404602053	365.0646057128907	93.9618835449219	615.301696777344	778.678100585938	436.931579589844	669.8621215820315	679.785583496094	420.1432800292971	744.341247558594	802.0856323242192	369.3943786621095	772.4900512695317	708.3950195312502	357.0757446289064	724.5564575195315	539.6204833984377	392.0833435058596	810.751098632813	564.9274902343752	340.6229553222657	731.9175415039065	329.7156677246095	290.1333312988282	702.2497558593752	209.0801544189454	269.8731994628907	696.4735107421877	315.421844482422	373.3901672363282	662.6405029296877	89.38492584228518	321.1231079101564	595.498718261719	55.68511581420901	274.7497863769532	768.530395507813	87.94792175292972	271.3548278808595	729.2142333984377	55.24706649780276	326.7215270996095	828.204467773438	41.1349334716797	225.8493194580079	865.6916503906255	48.1331481933594	261.2719116210939	798.7011718750005	26.26912689208986	350.7091369628907	
